<svg id="Neues_Logo" data-name="Neues Logo" xmlns="http://www.w3.org/2000/svg" viewBox="0 0 712.18 233.15"><defs><style>.cls-1{font-size:48px;letter-spacing:0.05em;}.cls-1,.cls-3{fill:#fff;font-family:DINMittelschriftStd, "DIN 1451 Std";}.cls-2{fill:#fe7a02;}.cls-3{font-size:114px;letter-spacing:0.05em;}.cls-4{letter-spacing:0.03em;}.cls-5{letter-spacing:-0.02em;}.cls-6{font-family:Heebo-Bold, Heebo;font-weight:700;}.cls-7{font-family:Heebo-ExtraBold, Heebo;font-weight:800;}</style></defs><title>logo</title><text class="cls-1" transform="translate(217.22 169.73)">Community Edition</text><path id="path3221" class="cls-2" d="M92.74,82.49c-31.55,9-14.34,13.78.3.07Zm6.56,1.67A38.39,38.39,0,0,1,83.82,94.89a38.86,38.86,0,0,1-22.2,1.48l-6.5,18.89L33.6,120.48a7.09,7.09,0,0,0,3.06,13.84l25.55-6.27a7,7,0,0,0,5-4.42l1.71-5,8.94,25.64L53.49,166.85a7,7,0,0,0-1.47,2L32.53,207.47a8.33,8.33,0,1,0,14.83,7.58l18.25-35.66,33.08-30.66,9.47,32.62a8.39,8.39,0,0,0,9,6.05l12.61-1.47V169.15L123,170l-11.31-40.21L101,99.22l11.33,2.91,3.74,22.33A7.09,7.09,0,0,0,130,122l-4.39-26.6a7,7,0,0,0-5-5.75Z" transform="translate(-28.04 -10.65)"/><path id="path3223" class="cls-2" d="M61.81,81.39l19.82-7.45,3.46-20.89L68.73,39.61,48.91,47.05,45.44,67.94Z" transform="translate(-28.04 -10.65)"/><path id="path3233" class="cls-2" d="M129.79,18.86,94.45,32.07A35.91,35.91,0,0,0,35.72,48.72l33.42-12.5,19,15.67L84.1,76.21,50.68,88.71a35.92,35.92,0,0,0,55.24-26l23.87-8.93Z" transform="translate(-28.04 -10.65)"/><text class="cls-3" transform="translate(117.23 120.95)">PO<tspan class="cls-4" x="148.54" y="0">R</tspan><tspan class="cls-5" x="221.73" y="0">T</tspan><tspan x="275.99" y="0">AL</tspan><tspan class="cls-6" x="420.31" y="0"> </tspan><tspan class="cls-7" x="454.4" y="0">2</tspan></text><path id="path3231" class="cls-2" d="M137.43,10.65h-4.69V216.13h4.69Z" transform="translate(-28.04 -10.65)"/></svg>